<svg xmlns="http://www.w3.org/2000/svg" width="159.761" height="53.172" viewBox="0 0 159.761 53.172"><defs><style>.a{fill:#F48576;}.b,.c{stroke:none;}.c{fill:#FFFFFF;}</style></defs><g class="a" transform="translate(0.919 1.757)"><path class="b" d="M 85.97482299804688 50.41527938842773 C 58.47090530395508 50.41527938842773 30.37425994873047 48.67823791503906 30.09367561340332 48.66069793701172 L 30.07455062866211 48.65948867797852 L 30.05540466308594 48.65903091430664 C 25.1768627166748 48.541259765625 20.74140548706055 47.82359313964844 16.87221717834473 46.52596664428711 C 13.21975898742676 45.30102920532227 10.07644653320312 43.56236267089844 7.52963399887085 41.35826110839844 C 2.65673828125 37.14107131958008 0.08105078339576721 31.3411979675293 0.08105078339576721 24.58563423156738 C 0.08105078339576721 21.22553062438965 0.8007591366767883 18.35738563537598 2.281280040740967 15.81730175018311 C 3.818634033203125 13.17971801757812 6.141925811767578 10.94819736480713 9.383925437927246 8.995260238647461 C 16.10521697998047 4.946384906768799 26.73003005981445 2.21776008605957 41.86550903320312 0.6534684300422668 C 50.91788482666016 -0.2821357250213623 63.12228012084961 -0.7565315365791321 78.13967895507812 -0.7565315365791321 C 103.7402191162109 -0.7565315365791321 128.9481353759766 0.64305180311203 129.1997833251953 0.6571767926216125 L 129.2277984619141 0.658760130405426 L 129.255859375 0.658760130405426 C 132.6257629394531 0.658760130405426 136.1489868164062 1.125635147094727 139.4446563720703 2.008926868438721 C 142.8947448730469 2.933593511581421 146.0056762695312 4.265759944915771 148.6910095214844 5.968447685241699 C 151.5377349853516 7.773447513580322 153.7676696777344 9.914968490600586 155.3188781738281 12.33351039886475 C 156.9929656982422 14.94363498687744 157.841796875 17.84075927734375 157.841796875 20.94438552856445 C 157.841796875 24.83571815490723 157.5027618408203 27.84934425354004 156.7747955322266 30.42846870422363 C 155.9006805419922 33.52542495727539 154.4308166503906 36.09959411621094 152.2812194824219 38.29803085327148 C 149.8317565917969 40.80313491821289 146.5083618164062 42.83584213256836 142.1211090087891 44.51227951049805 C 137.2987213134766 46.35501098632812 131.3433685302734 47.7139892578125 123.9147567749023 48.66686248779297 C 114.8701095581055 49.82703018188477 102.1052780151367 50.41527938842773 85.97482299804688 50.41527938842773 Z"/><path class="c" d="M 85.97481536865234 49.41528701782227 C 102.0629043579102 49.41528701782227 114.7849273681641 48.82976531982422 123.7875366210938 47.67500305175781 C 131.0344696044922 46.74541854858398 137.0826873779297 45.36704635620117 141.7641906738281 43.57815551757812 C 146.0136260986328 41.95437240600586 149.2198791503906 39.9985237121582 151.5662078857422 37.59891510009766 C 153.5959320068359 35.52309036254883 154.98486328125 33.08876419067383 155.8124084472656 30.15682983398438 C 156.5146942138672 27.66861152648926 156.841796875 24.74128723144531 156.841796875 20.94439506530762 C 156.841796875 13.81678676605225 152.1181488037109 9.325547218322754 148.155517578125 6.812982082366943 C 145.5558013916016 5.164590835571289 142.5379486083984 3.873242855072021 139.1857757568359 2.974808216094971 C 135.9733123779297 2.113829851150513 132.5396270751953 1.658742904663086 129.255859375 1.658742904663086 L 129.1997375488281 1.658742904663086 L 129.1436614990234 1.655590772628784 C 128.8923187255859 1.641481995582581 103.7124710083008 0.2434602975845337 78.13968658447266 0.2434602975845337 C 63.15653610229492 0.2434602975845337 50.98670959472656 0.7160689830780029 41.96829605102539 1.648155927658081 C 26.98220825195312 3.197025537490845 16.49255561828613 5.880460262298584 9.89992618560791 9.851829528808594 C 3.883316993713379 13.47619915008545 1.081056237220764 18.15798187255859 1.081056237220764 24.58563423156738 C 1.081056237220764 31.04217720031738 3.537230014801025 36.58058929443359 8.184056282043457 40.60211181640625 C 10.63181686401367 42.72050476074219 13.66192531585693 44.39459228515625 17.19020843505859 45.57787322998047 C 20.96446990966797 46.84365463256836 25.30107879638672 47.54396057128906 30.07951354980469 47.65932846069336 L 30.15607833862305 47.66263580322266 C 30.43633842468262 47.68017578125 58.49925231933594 49.41528701782227 85.97481536865234 49.41528701782227 M 85.97482299804688 51.415283203125 C 58.11895751953125 51.415283203125 30.03125190734863 49.65874099731445 30.03125190734863 49.65874099731445 C 9.54883861541748 49.16424179077148 -0.9189437627792358 38.39274215698242 -0.9189437627792358 24.58563423156738 C -0.9189437627792358 10.77850341796875 10.9521427154541 2.843134164810181 41.76268768310547 -0.3412570953369141 C 72.57324981689453 -3.525626659393311 129.255859375 -0.3412570953369141 129.255859375 -0.3412570953369141 C 143.0629730224609 -0.3412570953369141 158.841796875 7.137264728546143 158.841796875 20.94439506530762 C 158.841796875 34.75150299072266 154.853515625 45.70652389526367 124.0419921875 49.65874099731445 C 113.7721099853516 50.97606658935547 99.9014892578125 51.415283203125 85.97482299804688 51.415283203125 Z"/></g></svg>