<svg xmlns="http://www.w3.org/2000/svg" width="132.34" height="44.045" viewBox="0 0 132.34 44.045"><defs><style>.a{fill:#fff;}.b,.c{stroke:none;}.c{fill:#3b528b;}</style></defs><g class="a" transform="translate(0.919 1.757)"><path class="b" d="M 65.93152618408203 41.28891372680664 C 44.73225021362305 41.28891372680664 23.85339546203613 40.12984085083008 23.64497756958008 40.11812973022461 L 23.61695861816406 40.11654663085938 L 23.58888626098633 40.11654663085938 C 20.81217765808105 40.11654663085938 17.90903091430664 39.73181915283203 15.19332218170166 39.00398635864258 C 12.35221385955811 38.24251174926758 9.791213035583496 37.14600372314453 7.581486225128174 35.74489212036133 C 4.159813404083252 33.5753288269043 0.08104978501796722 29.68712997436523 0.08104978501796722 23.48434829711914 C 0.08104978501796722 20.27713012695312 0.3598497807979584 17.79556655883789 0.9584497809410095 15.67473030090332 C 1.674540638923645 13.13765716552734 2.878231525421143 11.02933025360107 4.638304233551025 9.229275703430176 C 6.649631500244141 7.172239303588867 9.382504463195801 5.501639366149902 12.99306774139404 4.121966361999512 C 16.97488594055176 2.600439071655273 21.89517784118652 1.477948188781738 28.03508567810059 0.6903846263885498 C 35.52008438110352 -0.2697244882583618 46.08663177490234 -0.7565426826477051 59.44119644165039 -0.7565426826477051 C 82.22116088867188 -0.7565426826477051 105.487907409668 0.6820391416549683 105.7202529907227 0.6965664029121399 L 105.7393798828125 0.6977664232254028 L 105.7585372924805 0.69822096824646 C 109.7825393676758 0.7953664064407349 113.4397201538086 1.386875510215759 116.6285247802734 2.456311941146851 C 119.6327590942383 3.463857412338257 122.2171249389648 4.893002986907959 124.309814453125 6.704093456268311 C 128.3075256347656 10.16385746002197 130.4206085205078 14.92336654663086 130.4206085205078 20.46809387207031 C 130.4206085205078 23.22027587890625 129.8320922851562 25.56785774230957 128.6213836669922 27.6450023651123 C 127.3627624511719 29.80434799194336 125.4577789306641 31.6330394744873 122.7975387573242 33.23553085327148 C 117.2519760131836 36.57614898681641 108.4739990234375 38.82869338989258 95.96199798583984 40.1218376159668 C 88.46919250488281 40.89625549316406 78.36548614501953 41.28891372680664 65.93152618408203 41.28891372680664 Z"/><path class="c" d="M 59.44119262695312 0.2434577941894531 C 46.12905120849609 0.2434577941894531 35.60532379150391 0.7275466918945312 28.16230773925781 1.682258605957031 C 16.81675720214844 3.137565612792969 9.355865478515625 5.834892272949219 5.353302001953125 9.928384780883789 C 3.713119506835938 11.60583877563477 2.590362548828125 13.5743293762207 1.920852661132812 15.94636726379395 C 1.347900390625 17.9763298034668 1.0810546875 20.37156677246094 1.0810546875 23.48434829711914 C 1.0810546875 29.23252868652344 4.907211303710938 32.86516571044922 8.116973876953125 34.90034866333008 C 10.2410888671875 36.24716567993164 12.70901489257812 37.3028564453125 15.45219421386719 38.03805541992188 C 18.08470153808594 38.74362182617188 20.89832305908203 39.11654663085938 23.58888244628906 39.11654663085938 L 23.64503479003906 39.11654663085938 L 23.70106506347656 39.11969375610352 C 23.90919494628906 39.13138580322266 44.75756072998047 40.28891372680664 65.93152618408203 40.28891372680664 C 78.33128356933594 40.28891372680664 88.40041351318359 39.89804077148438 95.85917663574219 39.12714767456055 C 108.221794128418 37.84942245483398 116.864616394043 35.64207458496094 122.2815399169922 32.37894821166992 C 127.1521224975586 29.44494819641113 129.4206085205078 25.66018486022949 129.4206085205078 20.46809387207031 C 129.4206085205078 15.22238540649414 127.4270324707031 10.72433090209961 123.6553955078125 7.460239410400391 C 121.6617584228516 5.734874725341797 119.1905975341797 4.370292663574219 116.3105392456055 3.404403686523438 C 113.2166519165039 2.366802215576172 109.6583251953125 1.792655944824219 105.7343978881836 1.697929382324219 L 105.6578521728516 1.694622039794922 C 105.4257583618164 1.680091857910156 82.18524932861328 0.2434577941894531 59.44119262695312 0.2434577941894531 M 59.44120025634766 -1.756534576416016 C 82.51591491699219 -1.756534576416016 105.7826690673828 -0.3014869689941406 105.7826690673828 -0.3014869689941406 C 122.7494888305664 0.1081314086914062 131.4206085205078 9.030820846557617 131.4206085205078 20.46809387207031 C 131.4206085205078 31.9053840637207 121.5870513916016 38.47872924804688 96.06479644775391 41.11654663085938 C 70.54254150390625 43.75436782836914 23.58887481689453 41.11654663085938 23.58888244628906 41.11654663085938 C 12.151611328125 41.11654663085938 -0.9189453125 34.92163848876953 -0.9189453125 23.48434829711914 C -0.9189453125 12.04707527160645 2.384796142578125 2.972366333007812 27.90785217285156 -0.3014869689941406 C 36.41501617431641 -1.392707824707031 47.90489959716797 -1.756534576416016 59.44120025634766 -1.756534576416016 Z"/></g></svg>