<?xml version="1.0" standalone="no"?>
<!DOCTYPE svg PUBLIC "-//W3C//DTD SVG 20010904//EN"
 "http://www.w3.org/TR/2001/REC-SVG-20010904/DTD/svg10.dtd">
<svg version="1.0" xmlns="http://www.w3.org/2000/svg"
 width="810.000000pt" height="206.000000pt" viewBox="0 0 810.000000 206.000000"
 preserveAspectRatio="xMidYMid meet">

<g transform="translate(0.000000,206.000000) scale(0.100000,-0.100000)"
fill="#3B528B" stroke="none">
<path d="M3050 2049 c-1067 -33 -1780 -117 -2275 -270 -333 -103 -565 -245
-675 -413 -136 -209 -129 -473 17 -726 47 -80 163 -197 266 -268 211 -145 526
-248 877 -286 197 -22 945 -51 1969 -76 518 -13 1712 -13 2131 0 1000 31 1640
116 2068 276 262 98 463 243 552 399 103 180 144 469 92 641 -102 331 -553
586 -1172 663 -47 6 -215 15 -375 21 -159 5 -360 12 -445 15 -889 33 -2368 44
-3030 24z"/>
</g>
</svg>
