<svg version="1.0" xmlns="http://www.w3.org/2000/svg" width="810.000000pt" height="146.000000pt" viewBox="0 0 810.000000 146.000000" preserveAspectRatio="xMidYMid meet">

<g transform="translate(0.000000,146.000000) scale(0.100000,-0.100000)" fill="#7184B2" stroke="none">
<path d="M2935 1453 c-260 -5 -905 -34 -1090 -49 -995 -78 -1530 -213 -1747 -441 -167 -176 -99 -452 156 -626 181 -123 510 -223 857 -262 622 -68 3821 -98 4889 -46 761 38 1242 104 1571 217 377 129 520 283 522 564 1 81 -3 103 -23 145 -105 219 -508 385 -1090 449 -142 16 -590 30 -1480 46 -465 9 -2192 11 -2565 3z"/>
</g>
</svg>