<svg xmlns="http://www.w3.org/2000/svg" width="94.437" height="97.376" viewBox="0 0 94.437 97.376"><defs><style>.a{fill:#f48576;}.b{fill:#7184b2;}</style></defs><g transform="translate(14.139)"><g transform="translate(0 0)"><path class="a" d="M560.722,450.145a46.762,46.762,0,0,1,9.4-8.189c4.06-2.612,8.4-4.379,13.357-4.261,6.381.152,10.572,4.316,10.746,10.739a34.035,34.035,0,0,1-6.616,21.332q-4.51,6.256-9.256,12.339a34.319,34.319,0,0,1-7.559,7.427c-2.307,1.573-4.053,3.748-5.951,5.764-3.319,3.54-5.231,3.852-9.394,1.42a50.194,50.194,0,0,1-16.1-14.4c-3.714-5.286-7.489-10.517-9.36-16.849a38.773,38.773,0,0,1-1.011-20.119c1.76-7.5,8.972-13.219,17.133-13.939,7.434-.658,10.025,1.718,12.775,9.769C559.807,443.888,560.064,446.84,560.722,450.145Zm-.249,20.466c-.72,1.469-1.49,2.847-3.409,2.834S554.57,472,554.113,470.5a15.792,15.792,0,0,1,1.781-13.5c.492-.769,1.5-2.57,1.5-2.57a43.1,43.1,0,0,0-.527-4.559c-.132-.644-.2-1.3-.312-1.947-.617-3.783-1.33-7.5-3.658-10.732a4.923,4.923,0,0,0-4.6-2.141,16.908,16.908,0,0,0-5.4,1.122c-4.593,1.85-8,4.794-9.311,9.748a31.818,31.818,0,0,0,1.323,19.44,66.011,66.011,0,0,0,22.149,29.749c.734.568.977.374,1.531-.263,2.37-2.73,4.586-5.688,7.33-8,5.2-4.358,9.429-9.54,13.863-14.6a45.007,45.007,0,0,0,10.365-20.8c1.067-5.023-1.2-9.1-5.757-10.094a13.035,13.035,0,0,0-6.637.6c-6.741,2.065-11.84,6.471-16.364,11.674a2.724,2.724,0,0,0-.374.575s.139,1.975.139,2.432C561.158,460.107,562.385,466.717,560.473,470.61Zm-2.259-12.346a14.133,14.133,0,0,0-2.113,11.258c.111.554.235,1.372.908,1.365.783-.007,1-.554,1.233-1.185C559.011,465.13,558.5,461.846,558.214,458.264Z" transform="translate(-528.082 -415.884)"/><path class="b" d="M940.863,208.787a11.379,11.379,0,0,1,11.618,9.97,4.208,4.208,0,0,1-.014,1.559,18.274,18.274,0,0,1-8.425,11.452,5.5,5.5,0,0,1-4.011.575,21.991,21.991,0,0,1-7.164-2.723,7.233,7.233,0,0,1-3.388-6.388,17,17,0,0,1,4.143-11.431A9.126,9.126,0,0,1,940.863,208.787Z" transform="translate(-901.669 -208.786)"/><path class="b" d="M1158.077,640.866c0,2.854-3.9,6.464-6.97,6.429-2.681-.028-5.667-2.937-5.716-5.57-.056-3.083,3.561-7.025,6.436-7.025A6.316,6.316,0,0,1,1158.077,640.866Z" transform="translate(-1102.623 -605.192)"/></g></g><g transform="translate(0 82.924)"><g transform="translate(0 0)"><g transform="translate(0 6.457)"><path d="M324.79,1504.959v3.256H324V1500.4h2.342a2.767,2.767,0,0,1,1.968.61,2.2,2.2,0,0,1,.651,1.677,2.1,2.1,0,0,1-.672,1.677,2.857,2.857,0,0,1-1.947.6Zm2.938-1.081a1.542,1.542,0,0,0,.443-1.192,1.57,1.57,0,0,0-.443-1.212,2.1,2.1,0,0,0-1.455-.416H324.79v3.235h1.483A2.1,2.1,0,0,0,327.727,1503.878Z" transform="translate(-324 -1500.296)"/><path d="M434.89,1500.5v7.815h-.79V1500.5Z" transform="translate(-426.472 -1500.389)"/><path d="M491.29,1501.13v2.951h3.048v.61H491.29v2.979h3.381v.644H490.5V1500.5h4.171v.63Z" transform="translate(-478.965 -1500.389)"/><path d="M596.761,1508.5h-.79l-4.282-6.526v6.526h-.79v-7.8h.79l4.282,6.54v-6.54h.79Z" transform="translate(-572.409 -1500.575)"/><path d="M717.3,1508.83h-3.561l-.707,1.905H712.2l2.882-7.635h.873l2.882,7.635h-.845Zm-.236-.624-1.538-4.212-1.566,4.212Z" transform="translate(-685.305 -1502.809)"/><path d="M914.472,1502.9v7.649H913.7v-6.408l-2.647,6.408h-.7l-2.66-6.388v6.388h-.79V1502.9h.922l2.882,6.686,2.861-6.686Z" transform="translate(-866.516 -1502.623)"/><path d="M1058.1,1508.83h-3.561l-.707,1.905H1053l2.882-7.635h.873l2.882,7.635h-.845Zm-.236-.624-1.538-4.212-1.566,4.212Z" transform="translate(-1002.494 -1502.809)"/><path d="M1192.872,1502.9v7.649h-.776v-6.408l-2.647,6.408h-.7l-2.66-6.388v6.388h-.79V1502.9h.921l2.882,6.686,2.861-6.686Z" transform="translate(-1125.628 -1502.623)"/><path d="M1347.372,1502.9v7.649h-.776v-6.408l-2.646,6.408h-.7l-2.66-6.388v6.388h-.79V1502.9h.921l2.882,6.686,2.861-6.686Z" transform="translate(-1269.424 -1502.623)"/><path d="M1491,1508.83h-3.561l-.707,1.905h-.832l2.882-7.635h.873l2.882,7.635h-.845Zm-.229-.624-1.538-4.212-1.566,4.212Z" transform="translate(-1405.402 -1502.809)"/><path d="M1619.373,1505.842a1.893,1.893,0,0,1-.769.762,2.634,2.634,0,0,1-1.3.291,3.088,3.088,0,0,1-1.344-.277,2.321,2.321,0,0,1-.935-.762,2.08,2.08,0,0,1-.4-1.081h.818a1.74,1.74,0,0,0,.256.686,1.613,1.613,0,0,0,.61.568,1.905,1.905,0,0,0,.963.229,1.517,1.517,0,0,0,1.136-.4,1.373,1.373,0,0,0,.4-1.012,1.311,1.311,0,0,0-.263-.845,1.774,1.774,0,0,0-.644-.506,8.953,8.953,0,0,0-1.046-.388,8.7,8.7,0,0,1-1.178-.45,2.035,2.035,0,0,1-.762-.637,2.055,2.055,0,0,1,.312-2.563,2.485,2.485,0,0,1,1.7-.554,2.671,2.671,0,0,1,1.76.54,2.138,2.138,0,0,1,.769,1.351h-.831a1.626,1.626,0,0,0-.527-.887,1.681,1.681,0,0,0-1.171-.388,1.612,1.612,0,0,0-1.095.353,1.245,1.245,0,0,0-.409.984,1.223,1.223,0,0,0,.256.811,1.752,1.752,0,0,0,.624.478c.25.111.589.236,1.012.374a8.59,8.59,0,0,1,1.205.457,2.047,2.047,0,0,1,.783.665,1.96,1.96,0,0,1,.319,1.178A2.117,2.117,0,0,1,1619.373,1505.842Z" transform="translate(-1525.186 -1498.9)"/></g><path class="b" d="M412.4,1409.434a6.055,6.055,0,0,1,1.884-3.734,5.937,5.937,0,0,1,1.884,3.734,1.884,1.884,0,0,1-3.769,0Z" transform="translate(-406.275 -1405.7)"/></g></g></svg>