<svg xmlns="http://www.w3.org/2000/svg" width="78.279" height="59.238" viewBox="0 0 78.279 59.238"><defs><style>.a{fill:#faf2ee;fill-rule:evenodd;}</style></defs><g transform="translate(-26 -9.001)"><g transform="translate(26 9.001)"><path class="a" d="M489.478,58.545a11.9,11.9,0,0,0-2.744-4.506,13.5,13.5,0,0,0-5.315-3.317,25.521,25.521,0,0,0-8.5-1.189H468.2a25.662,25.662,0,0,1,6.212-14.841,46.434,46.434,0,0,1,14.862-10.737L485.432,18a57.88,57.88,0,0,0-21.4,15.611q-8.889,10.3-8.877,20.427,0,10.879,5.162,17.048t14.818,6.152a15.351,15.351,0,0,0,10.631-4.079,12.477,12.477,0,0,0,4.517-9.52,16.294,16.294,0,0,0-.8-5.095m-43.151,0a11.93,11.93,0,0,0-2.748-4.506,13.454,13.454,0,0,0-5.314-3.317,25.482,25.482,0,0,0-8.5-1.189h-4.722a25.687,25.687,0,0,1,6.21-14.841,46.514,46.514,0,0,1,14.865-10.737L442.279,18a57.88,57.88,0,0,0-21.4,15.611q-8.889,10.3-8.875,20.427c0,7.252,1.707,12.941,5.16,17.048s8.389,6.152,14.818,6.152a15.36,15.36,0,0,0,10.633-4.079,12.474,12.474,0,0,0,4.515-9.52,16.475,16.475,0,0,0-.8-5.095" transform="translate(-412 -18.001)"/></g></g></svg>