<svg id="svg" version="1.1" xmlns="http://www.w3.org/2000/svg" xmlns:xlink="http://www.w3.org/1999/xlink" width="400" height="36.107854630715124" viewBox="0, 0, 400,36.107854630715124"><g id="svgg"><path id="path0" d="M0.000 15.944 L 0.000 31.887 0.762 31.887 C 1.181 31.887,3.089 31.729,5.001 31.536 C 6.914 31.344,11.187 31.087,14.497 30.965 C 22.716 30.662,25.589 30.771,66.471 32.942 C 118.573 35.708,145.724 36.352,190.164 35.878 C 227.363 35.481,239.502 34.934,268.230 32.357 C 287.327 30.644,288.082 30.607,303.517 30.606 C 312.091 30.605,319.599 30.721,322.743 30.904 C 333.567 31.532,341.884 32.135,345.838 32.579 C 363.404 34.553,384.360 34.945,398.359 33.562 L 399.883 33.411 399.943 16.706 L 400.003 0.000 200.002 0.000 L 0.000 0.000 0.000 15.944 " stroke="none" fill="#FAF2EE" fill-rule="evenodd"></path></g></svg>