<svg xmlns="http://www.w3.org/2000/svg" width="91.39" height="91.39" viewBox="0 0 91.39 91.39"><defs><style>.a{fill:none;stroke:#e0e5f2;stroke-linecap:round;stroke-linejoin:round;stroke-width:3px;}</style></defs><g transform="translate(1.5 1.5)"><path class="a" d="M14.252,4.5H82.517a9.752,9.752,0,0,1,9.752,9.752V82.517a9.752,9.752,0,0,1-9.752,9.752H14.252A9.752,9.752,0,0,1,4.5,82.517V14.252A9.752,9.752,0,0,1,14.252,4.5Z" transform="translate(-4.5 -4.5)"/><path class="a" d="M25.128,17.814A7.314,7.314,0,1,1,17.814,10.5,7.314,7.314,0,0,1,25.128,17.814Z" transform="translate(9.004 9.004)"/><path class="a" d="M85.517,39.38,61.137,15,7.5,68.637" transform="translate(2.252 19.132)"/></g></svg>